<svg viewBox="0 0 200 200" xmlns="http://www.w3.org/2000/svg">
  <!-- Head -->
  <ellipse cx="100" cy="110" rx="50" ry="48" fill="white"/>
  
  <!-- Spots on head -->
  <ellipse cx="70" cy="95" rx="18" ry="16" fill="#2C3E50"/>
  <ellipse cx="130" cy="105" rx="20" ry="18" fill="#2C3E50"/>
  <ellipse cx="100" cy="80" rx="15" ry="14" fill="#2C3E50"/>
  
  <!-- Snout area -->
  <ellipse cx="100" cy="130" rx="35" ry="28" fill="#FFD4D4"/>
  
  <!-- Left ear -->
  <ellipse cx="60" cy="80" rx="18" ry="24" fill="white"/>
  <ellipse cx="60" cy="83" rx="10" ry="16" fill="#FFD4D4"/>
  <path d="M 60 70 L 60 95" stroke="#2C3E50" stroke-width="1.5"/>
  
  <!-- Right ear -->
  <ellipse cx="140" cy="80" rx="18" ry="24" fill="white"/>
  <ellipse cx="140" cy="83" rx="10" ry="16" fill="#FFD4D4"/>
  <path d="M 140 70 L 140 95" stroke="#2C3E50" stroke-width="1.5"/>
  
  <!-- Horns left -->
  <path d="M 75 68 Q 70 60 68 55 Q 67 50 70 48" stroke="#D4A574" stroke-width="5" fill="none" stroke-linecap="round"/>
  
  <!-- Horns right -->
  <path d="M 125 68 Q 130 60 132 55 Q 133 50 130 48" stroke="#D4A574" stroke-width="5" fill="none" stroke-linecap="round"/>
  
  <!-- Left eye -->
  <ellipse cx="82" cy="105" rx="9" ry="12" fill="#2C3E50"/>
  <ellipse cx="84" cy="102" rx="3" ry="4" fill="white"/>
  
  <!-- Right eye -->
  <ellipse cx="118" cy="105" rx="9" ry="12" fill="#2C3E50"/>
  <ellipse cx="120" cy="102" rx="3" ry="4" fill="white"/>
  
  <!-- Nostrils -->
  <ellipse cx="92" cy="130" rx="5" ry="4" fill="#FFB6C1"/>
  <ellipse cx="108" cy="130" rx="5" ry="4" fill="#FFB6C1"/>
  
  <!-- Mouth -->
  <path d="M 85 140 Q 100 147 115 140" stroke="#2C3E50" stroke-width="2" fill="none" stroke-linecap="round"/>
  
  <!-- Bell -->
  <rect x="95" y="152" width="10" height="8" fill="#FFD700" rx="1"/>
  <circle cx="100" cy="162" r="3" fill="#FFD700"/>
  <line x1="100" y1="160" x2="100" y2="165" stroke="#B8860B" stroke-width="1"/>
  
  <!-- Cheek blush left -->
  <ellipse cx="58" cy="115" rx="8" ry="6" fill="#FFB6C1" opacity="0.5"/>
  
  <!-- Cheek blush right -->
  <ellipse cx="142" cy="115" rx="8" ry="6" fill="#FFB6C1" opacity="0.5"/>
</svg>
