<svg viewBox="0 0 200 200" xmlns="http://www.w3.org/2000/svg">
  <!-- Cat head -->
  <ellipse cx="100" cy="110" rx="50" ry="45" fill="#FFB366"/>
  
  <!-- Left ear -->
  <ellipse cx="70" cy="75" rx="18" ry="28" fill="#FFB366"/>
  <ellipse cx="70" cy="80" rx="10" ry="16" fill="#FFC999"/>
  
  <!-- Right ear -->
  <ellipse cx="130" cy="75" rx="18" ry="28" fill="#FFB366"/>
  <ellipse cx="130" cy="80" rx="10" ry="16" fill="#FFC999"/>
  
  <!-- Left eye -->
  <ellipse cx="85" cy="105" rx="8" ry="12" fill="#2C3E50"/>
  <ellipse cx="86" cy="102" rx="3" ry="4" fill="white"/>
  
  <!-- Right eye -->
  <ellipse cx="115" cy="105" rx="8" ry="12" fill="#2C3E50"/>
  <ellipse cx="116" cy="102" rx="3" ry="4" fill="white"/>
  
  <!-- Nose -->
  <ellipse cx="100" cy="118" rx="5" ry="4" fill="#FF8B94"/>
  
  <!-- Mouth -->
  <path d="M 100 118 Q 90 125 85 122" stroke="#2C3E50" stroke-width="2" fill="none" stroke-linecap="round"/>
  <path d="M 100 118 Q 110 125 115 122" stroke="#2C3E50" stroke-width="2" fill="none" stroke-linecap="round"/>
  
  <!-- Whiskers left -->
  <line x1="50" y1="108" x2="70" y2="110" stroke="#2C3E50" stroke-width="1.5" stroke-linecap="round"/>
  <line x1="50" y1="115" x2="70" y2="115" stroke="#2C3E50" stroke-width="1.5" stroke-linecap="round"/>
  <line x1="50" y1="122" x2="70" y2="120" stroke="#2C3E50" stroke-width="1.5" stroke-linecap="round"/>
  
  <!-- Whiskers right -->
  <line x1="150" y1="108" x2="130" y2="110" stroke="#2C3E50" stroke-width="1.5" stroke-linecap="round"/>
  <line x1="150" y1="115" x2="130" y2="115" stroke="#2C3E50" stroke-width="1.5" stroke-linecap="round"/>
  <line x1="150" y1="122" x2="130" y2="120" stroke="#2C3E50" stroke-width="1.5" stroke-linecap="round"/>
  
  <!-- Cheek blush left -->
  <ellipse cx="65" cy="120" rx="8" ry="6" fill="#FFB6C1" opacity="0.5"/>
  
  <!-- Cheek blush right -->
  <ellipse cx="135" cy="120" rx="8" ry="6" fill="#FFB6C1" opacity="0.5"/>
</svg>
