<svg viewBox="0 0 200 200" xmlns="http://www.w3.org/2000/svg">
  <!-- Panda head -->
  <ellipse cx="100" cy="110" rx="48" ry="50" fill="white"/>
  
  <!-- Left ear -->
  <circle cx="70" cy="75" r="22" fill="#2C3E50"/>
  <circle cx="70" cy="78" r="12" fill="#3C4C5C"/>
  
  <!-- Right ear -->
  <circle cx="130" cy="75" r="22" fill="#2C3E50"/>
  <circle cx="130" cy="78" r="12" fill="#3C4C5C"/>
  
  <!-- Left eye patch -->
  <ellipse cx="82" cy="100" rx="18" ry="22" fill="#2C3E50" transform="rotate(-15 82 100)"/>
  
  <!-- Right eye patch -->
  <ellipse cx="118" cy="100" rx="18" ry="22" fill="#2C3E50" transform="rotate(15 118 100)"/>
  
  <!-- Left eye -->
  <ellipse cx="82" cy="100" rx="8" ry="11" fill="white"/>
  <circle cx="82" cy="102" r="5" fill="#2C3E50"/>
  <circle cx="84" cy="100" r="2" fill="white"/>
  
  <!-- Right eye -->
  <ellipse cx="118" cy="100" rx="8" ry="11" fill="white"/>
  <circle cx="118" cy="102" r="5" fill="#2C3E50"/>
  <circle cx="120" cy="100" r="2" fill="white"/>
  
  <!-- Nose -->
  <ellipse cx="100" cy="120" rx="8" ry="7" fill="#2C3E50"/>
  
  <!-- Mouth -->
  <path d="M 100 127 Q 88 135 82 132" stroke="#2C3E50" stroke-width="2" fill="none" stroke-linecap="round"/>
  <path d="M 100 127 Q 112 135 118 132" stroke="#2C3E50" stroke-width="2" fill="none" stroke-linecap="round"/>
  
  <!-- Cheek blush left -->
  <ellipse cx="58" cy="115" rx="8" ry="6" fill="#FFB6C1" opacity="0.5"/>
  
  <!-- Cheek blush right -->
  <ellipse cx="142" cy="115" rx="8" ry="6" fill="#FFB6C1" opacity="0.5"/>
</svg>
