<svg viewBox="24.5 24.0 151.0 151.0" xmlns="http://www.w3.org/2000/svg">
  <!-- Body -->
  <ellipse cx="100" cy="115" rx="50" ry="55" fill="#FF4757"/>
  
  <!-- Head -->
  <circle cx="100" cy="70" r="28" fill="#2C3E50"/>
  
  <!-- Middle line -->
  <line x1="100" y1="70" x2="100" y2="165" stroke="#2C3E50" stroke-width="4"/>
  
  <!-- Spots left side -->
  <circle cx="75" cy="90" r="10" fill="#2C3E50"/>
  <circle cx="70" cy="115" r="12" fill="#2C3E50"/>
  <circle cx="75" cy="140" r="10" fill="#2C3E50"/>
  
  <!-- Spots right side -->
  <circle cx="125" cy="90" r="10" fill="#2C3E50"/>
  <circle cx="130" cy="115" r="12" fill="#2C3E50"/>
  <circle cx="125" cy="140" r="10" fill="#2C3E50"/>
  
  <!-- Left eye -->
  <circle cx="88" cy="68" r="10" fill="white"/>
  <circle cx="88" cy="68" r="6" fill="#2C3E50"/>
  <circle cx="90" cy="66" r="3" fill="white"/>
  
  <!-- Right eye -->
  <circle cx="112" cy="68" r="10" fill="white"/>
  <circle cx="112" cy="68" r="6" fill="#2C3E50"/>
  <circle cx="114" cy="66" r="3" fill="white"/>
  
  <!-- Antenna left -->
  <line x1="85" y1="48" x2="80" y2="35" stroke="#2C3E50" stroke-width="3" stroke-linecap="round"/>
  <circle cx="80" cy="33" r="4" fill="#2C3E50"/>
  
  <!-- Antenna right -->
  <line x1="115" y1="48" x2="120" y2="35" stroke="#2C3E50" stroke-width="3" stroke-linecap="round"/>
  <circle cx="120" cy="33" r="4" fill="#2C3E50"/>
  
  <!-- Smile -->
  <path d="M 90 78 Q 100 83 110 78" stroke="white" stroke-width="2" fill="none" stroke-linecap="round"/>
  
  <!-- Legs left -->
  <line x1="65" y1="100" x2="50" y2="95" stroke="#2C3E50" stroke-width="3" stroke-linecap="round"/>
  <line x1="60" y1="120" x2="45" y2="120" stroke="#2C3E50" stroke-width="3" stroke-linecap="round"/>
  <line x1="65" y1="140" x2="50" y2="145" stroke="#2C3E50" stroke-width="3" stroke-linecap="round"/>
  
  <!-- Legs right -->
  <line x1="135" y1="100" x2="150" y2="95" stroke="#2C3E50" stroke-width="3" stroke-linecap="round"/>
  <line x1="140" y1="120" x2="155" y2="120" stroke="#2C3E50" stroke-width="3" stroke-linecap="round"/>
  <line x1="135" y1="140" x2="150" y2="145" stroke="#2C3E50" stroke-width="3" stroke-linecap="round"/>
  
  <!-- Cheek blush left -->
  <ellipse cx="70" cy="75" rx="6" ry="5" fill="#FFB6C1" opacity="0.6"/>
  
  <!-- Cheek blush right -->
  <ellipse cx="130" cy="75" rx="6" ry="5" fill="#FFB6C1" opacity="0.6"/>
</svg>
