<svg viewBox="0 0 200 200" xmlns="http://www.w3.org/2000/svg">
  <!-- Head -->
  <ellipse cx="100" cy="100" rx="50" ry="48" fill="#9BA4B4"/>
  
  <!-- Trunk -->
  <path d="M 100 125 Q 95 135 90 145 Q 88 155 92 163 Q 95 168 100 168" 
        stroke="#9BA4B4" stroke-width="22" fill="none" stroke-linecap="round"/>
  
  <!-- Left ear -->
  <ellipse cx="55" cy="100" rx="25" ry="38" fill="#B8C4D6"/>
  <ellipse cx="55" cy="100" rx="18" ry="28" fill="#9BA4B4"/>
  
  <!-- Right ear -->
  <ellipse cx="145" cy="100" rx="25" ry="38" fill="#B8C4D6"/>
  <ellipse cx="145" cy="100" rx="18" ry="28" fill="#9BA4B4"/>
  
  <!-- Left eye -->
  <ellipse cx="80" cy="90" rx="9" ry="12" fill="#2C3E50"/>
  <ellipse cx="82" cy="88" rx="3" ry="4" fill="white"/>
  
  <!-- Right eye -->
  <ellipse cx="120" cy="90" rx="9" ry="12" fill="#2C3E50"/>
  <ellipse cx="122" cy="88" rx="3" ry="4" fill="white"/>
  
  <!-- Trunk tip detail -->
  <ellipse cx="100" cy="168" rx="8" ry="6" fill="#B8C4D6"/>
  
  <!-- Tusk left (small) -->
  <path d="M 85 120 Q 80 128 82 135" stroke="white" stroke-width="4" fill="none" stroke-linecap="round"/>
  
  <!-- Tusk right (small) -->
  <path d="M 115 120 Q 120 128 118 135" stroke="white" stroke-width="4" fill="none" stroke-linecap="round"/>
  
  <!-- Cheek blush left -->
  <ellipse cx="65" cy="105" rx="8" ry="6" fill="#FFB6C1" opacity="0.5"/>
  
  <!-- Cheek blush right -->
  <ellipse cx="135" cy="105" rx="8" ry="6" fill="#FFB6C1" opacity="0.5"/>
  
  <!-- Hair tuft on top -->
  <ellipse cx="100" cy="60" rx="6" ry="10" fill="#7D8CA3"/>
</svg>
