<svg viewBox="40.0 52.5 120.0 120.0" xmlns="http://www.w3.org/2000/svg">
  <!-- Body/Head -->
  <ellipse cx="100" cy="115" rx="55" ry="50" fill="#A28FC9"/>
  
  <!-- Snout -->
  <ellipse cx="100" cy="135" rx="42" ry="28" fill="#C5B3E6"/>
  
  <!-- Left ear -->
  <ellipse cx="65" cy="80" rx="18" ry="20" fill="#A28FC9"/>
  <ellipse cx="65" cy="83" rx="10" ry="12" fill="#C5B3E6"/>
  
  <!-- Right ear -->
  <ellipse cx="135" cy="80" rx="18" ry="20" fill="#A28FC9"/>
  <ellipse cx="135" cy="83" rx="10" ry="12" fill="#C5B3E6"/>
  
  <!-- Left eye -->
  <ellipse cx="80" cy="105" rx="10" ry="12" fill="#2C3E50"/>
  <ellipse cx="82" cy="103" rx="3" ry="4" fill="white"/>
  
  <!-- Right eye -->
  <ellipse cx="120" cy="105" rx="10" ry="12" fill="#2C3E50"/>
  <ellipse cx="122" cy="103" rx="3" ry="4" fill="white"/>
  
  <!-- Nostrils -->
  <ellipse cx="90" cy="132" rx="7" ry="6" fill="#8B73B8"/>
  <ellipse cx="110" cy="132" rx="7" ry="6" fill="#8B73B8"/>
  
  <!-- Mouth -->
  <path d="M 75 145 Q 100 153 125 145" stroke="#8B73B8" stroke-width="3" fill="none" stroke-linecap="round"/>
  
  <!-- Teeth (two small rectangles) -->
  <rect x="95" y="148" width="4" height="6" fill="white" rx="1"/>
  <rect x="101" y="148" width="4" height="6" fill="white" rx="1"/>
  
  <!-- Cheek blush left -->
  <ellipse cx="55" cy="120" rx="9" ry="7" fill="#FFB6C1" opacity="0.5"/>
  
  <!-- Cheek blush right -->
  <ellipse cx="145" cy="120" rx="9" ry="7" fill="#FFB6C1" opacity="0.5"/>
  
  <!-- Little tuft on top of head -->
  <ellipse cx="100" cy="70" rx="8" ry="10" fill="#8B73B8"/>
</svg>
